<?xml version="1.0" standalone="no"?>
<!DOCTYPE svg PUBLIC "-//W3C//DTD SVG 20010904//EN"
 "http://www.w3.org/TR/2001/REC-SVG-20010904/DTD/svg10.dtd">
<svg version="1.0" xmlns="http://www.w3.org/2000/svg"
 width="800.000000pt" height="800.000000pt" viewBox="0 0 800.000000 800.000000"
 preserveAspectRatio="xMidYMid meet">
<metadata>
Created by potrace 1.14, written by Peter Selinger 2001-2017
</metadata>
<g transform="translate(0.000000,800.000000) scale(0.100000,-0.100000)"
fill="#000000" stroke="none">
<path d="M2671 7987 c-51 -20 -106 -71 -132 -124 l-23 -48 -1 -470 0 -469
-145 -1 c-160 -2 -191 -10 -252 -68 -66 -63 -72 -95 -71 -432 0 -268 4 -336
28 -466 8 -42 68 -205 96 -261 53 -105 128 -208 218 -299 47 -47 95 -91 106
-97 19 -10 20 -23 21 -444 l1 -433 -102 -165 c-100 -163 -156 -257 -211 -355
-15 -27 -35 -63 -45 -80 -10 -16 -28 -50 -40 -75 -13 -25 -25 -47 -28 -50 -7
-6 -197 -389 -231 -465 -12 -27 -35 -78 -51 -112 -16 -34 -29 -64 -29 -66 0
-2 -9 -25 -20 -51 -12 -25 -21 -48 -20 -51 0 -3 -9 -22 -20 -42 -11 -21 -20
-41 -20 -44 0 -4 -8 -24 -17 -45 -9 -22 -17 -41 -18 -44 -1 -3 -7 -18 -13 -33
-7 -16 -12 -34 -12 -41 0 -6 -4 -16 -8 -21 -12 -13 -150 -396 -166 -460 -2 -5
-5 -17 -8 -25 -14 -40 -58 -187 -61 -205 -2 -11 -7 -27 -10 -35 -12 -29 -46
-157 -81 -295 -19 -77 -38 -153 -42 -170 -4 -16 -8 -32 -9 -35 0 -3 -4 -21 -8
-40 -13 -64 -15 -75 -27 -125 -6 -27 -14 -61 -16 -75 -3 -14 -16 -75 -29 -137
-14 -61 -26 -122 -29 -135 -2 -13 -12 -56 -20 -96 -9 -40 -16 -90 -16 -110 0
-52 40 -132 84 -167 32 -25 126 -68 176 -80 8 -2 62 -20 120 -40 58 -20 114
-38 125 -41 11 -2 31 -8 45 -13 14 -6 45 -16 70 -22 56 -15 54 -15 120 -34 30
-9 62 -18 70 -20 103 -27 179 -46 195 -50 11 -3 40 -10 65 -15 25 -6 63 -15
85 -20 22 -4 51 -11 65 -15 14 -3 34 -7 45 -9 11 -2 83 -15 160 -29 77 -14
156 -29 175 -32 19 -3 46 -7 60 -10 39 -7 101 -15 145 -20 22 -3 50 -7 62 -9
12 -3 53 -8 90 -11 37 -4 82 -9 98 -11 17 -2 62 -6 100 -10 39 -3 86 -7 105
-9 266 -28 1012 -27 1285 2 33 3 79 6 102 7 24 1 43 3 43 6 0 3 12 5 28 5 32
1 156 13 192 19 58 10 107 18 145 22 22 2 50 6 62 8 11 3 43 8 70 12 26 3 57
8 68 10 11 2 47 9 80 15 33 6 143 29 245 51 102 22 196 42 209 45 13 2 31 8
40 12 9 5 19 9 24 9 27 1 124 26 135 34 6 6 12 8 12 5 0 -3 60 13 133 35 72
21 139 41 147 43 8 2 48 15 88 29 39 14 72 22 72 19 0 -3 6 -1 12 5 7 5 29 15
48 20 125 38 190 72 227 119 55 70 63 123 39 240 -8 38 -17 80 -20 93 -3 14
-8 36 -11 50 -3 14 -10 45 -15 70 -16 85 -20 105 -27 130 -3 14 -7 31 -9 39
-1 7 -7 34 -13 60 -6 25 -13 57 -16 71 -3 14 -9 45 -15 70 -6 25 -13 56 -16
70 -14 70 -75 303 -109 420 -9 30 -18 62 -20 70 -2 8 -13 47 -25 85 -12 39
-23 75 -24 80 -2 6 -6 17 -9 25 -3 8 -18 53 -32 100 -34 105 -130 376 -155
435 -5 11 -21 52 -36 90 -15 39 -35 88 -44 110 -10 22 -36 83 -58 135 -49 116
-107 240 -201 430 -97 198 -226 434 -323 593 -26 43 -48 80 -48 82 0 2 -13 24
-30 48 -16 25 -30 49 -30 55 0 6 -4 12 -8 14 -4 2 -28 35 -52 73 l-44 70 -1
435 0 435 45 36 c63 50 200 200 200 218 0 5 3 11 8 13 9 4 62 85 62 94 0 4 6
15 13 23 11 13 69 142 73 161 0 3 3 12 7 20 20 51 42 155 53 250 13 111 10
613 -4 655 -20 63 -59 110 -114 140 -50 27 -58 28 -195 29 -79 1 -144 3 -144
6 -1 3 -2 210 -3 460 -2 333 -6 467 -15 500 -16 55 -89 130 -144 147 -120 37
-243 -19 -293 -132 -15 -36 -17 -86 -18 -510 l-1 -470 -50 -7 c-126 -17 -158
-23 -220 -40 -22 -7 -43 -12 -47 -14 -5 -1 -10 -3 -13 -4 -3 -1 -8 -3 -12 -4
-93 -21 -311 -141 -427 -236 -44 -36 -153 -150 -199 -208 -44 -56 -51 -62 -60
-45 -13 24 -112 139 -157 182 -29 27 -125 109 -165 139 -27 20 -134 82 -143
82 -5 0 -15 7 -22 15 -6 8 -15 14 -18 13 -4 -1 -28 8 -54 20 -104 47 -247 83
-378 98 -30 3 -57 8 -60 11 -2 2 -5 215 -5 472 l-1 467 -27 55 c-39 76 -103
118 -189 124 -38 3 -76 0 -97 -8z m374 -1591 c17 -4 39 -8 50 -10 40 -7 151
-48 200 -74 246 -129 427 -380 462 -642 2 -19 5 -71 6 -115 l2 -80 -320 -2
c-291 -2 -346 1 -425 24 -8 2 -17 5 -20 5 -3 1 -33 14 -68 29 -213 96 -376
309 -408 535 -7 49 -13 324 -8 335 4 8 490 3 529 -5z m2436 2 c7 -10 3 -280
-5 -336 -19 -132 -102 -291 -203 -389 -55 -53 -134 -113 -150 -113 -5 0 -14
-5 -21 -12 -15 -15 -70 -35 -157 -58 -60 -15 -116 -18 -391 -19 l-321 -1 3 87
c3 89 11 160 19 173 2 4 7 21 10 39 26 149 179 369 329 476 107 75 255 136
367 150 30 4 55 8 56 9 7 6 459 1 464 -6z m-2351 -1393 c36 -2 205 -4 375 -4
171 0 319 0 330 0 11 0 227 0 480 -1 465 0 587 3 660 15 l40 7 0 -244 0 -243
-1013 -3 c-556 -1 -1013 1 -1013 5 -1 5 -2 115 -3 246 l-2 238 41 -6 c22 -3
69 -7 105 -10z m1975 -944 c14 -1 39 -31 84 -103 35 -57 74 -119 86 -138 13
-19 35 -57 51 -85 15 -27 67 -121 115 -207 158 -284 356 -704 454 -963 13 -33
29 -73 36 -90 6 -16 13 -34 15 -40 2 -5 17 -48 34 -95 18 -47 36 -98 41 -115
5 -16 13 -39 18 -50 9 -19 65 -197 125 -395 27 -91 73 -263 86 -320 4 -19 22
-96 39 -170 18 -74 34 -145 36 -158 3 -12 8 -34 11 -50 3 -15 7 -37 9 -49 2
-11 6 -30 9 -41 7 -22 10 -35 20 -98 l7 -40 -133 -41 c-226 -69 -418 -122
-458 -128 -8 -1 -33 -7 -55 -13 -45 -13 -313 -70 -360 -77 -16 -2 -41 -7 -55
-9 -13 -3 -42 -8 -65 -12 -45 -7 -70 -12 -70 -14 0 -1 -22 -3 -48 -5 -27 -2
-60 -6 -75 -9 -39 -8 -102 -18 -142 -21 -19 -2 -35 -4 -35 -5 0 0 -22 -3 -50
-5 -27 -3 -68 -7 -90 -10 -55 -7 -175 -16 -267 -20 -42 -2 -80 -5 -85 -8 -10
-6 -774 -1 -875 6 -160 12 -296 25 -435 42 -24 3 -62 7 -85 10 -24 3 -72 10
-108 16 -36 6 -76 13 -90 15 -50 7 -158 26 -272 49 -16 3 -40 7 -55 10 -48 9
-113 24 -263 61 -80 20 -152 37 -160 39 -8 2 -85 24 -170 50 -85 26 -167 50
-183 52 -15 3 -30 9 -33 14 -3 5 -14 9 -25 9 -21 0 -24 17 -9 70 5 19 12 51
15 70 3 19 10 51 15 70 5 19 12 51 15 70 3 19 10 51 15 70 5 19 11 46 14 60 3
14 8 37 11 51 3 15 26 107 51 205 25 99 46 184 48 189 1 6 4 15 8 20 3 6 10
28 14 50 10 48 9 46 17 65 3 8 29 92 58 185 29 94 56 172 59 175 3 3 6 12 7
20 2 8 17 51 34 95 16 44 32 85 33 90 2 6 6 19 11 30 4 11 23 61 42 110 19 50
46 115 58 145 13 30 38 89 56 130 17 41 43 100 56 130 31 67 240 489 254 510
5 8 30 53 56 100 70 128 72 132 99 175 13 22 30 51 37 65 6 14 14 27 18 30 3
3 14 19 23 35 9 17 24 42 34 56 9 15 31 50 47 78 21 36 39 54 58 59 20 5 2086
8 2212 3z"/>
</g>
</svg>
